<svg width="40" height="38" viewBox="0 0 40 38" fill="none" xmlns="http://www.w3.org/2000/svg">
<path d="M33.9684 9.36565C30.2589 4.94301 22.9496 5.49562 20.0001 10.2306C17.0506 5.49561 9.74127 4.94301 6.03169 9.36565L5.51609 9.98036C2.37879 13.7207 2.83178 19.0547 6.56201 22.2959L18.1791 32.3905C18.3526 32.5414 18.5424 32.7063 18.7212 32.8338C18.9271 32.9805 19.2147 33.1502 19.5989 33.2199C19.8637 33.268 20.1364 33.268 20.4012 33.2199C20.7854 33.1502 21.0731 32.9805 21.2789 32.8338C21.4579 32.7063 21.6476 32.5414 21.8212 32.3905L33.4381 22.2959C37.1684 19.0547 37.6214 13.7207 34.4841 9.98034L33.9684 9.36565Z" fill="#FF395A"/>
</svg>
