<svg width="43" height="32" viewBox="0 0 43 32" fill="none" xmlns="http://www.w3.org/2000/svg">
<path d="M32.0577 4.39278C30.7021 4.39278 29.4276 4.77382 28.4684 5.46486L21.5001 10.4882L14.5317 5.46486C13.5737 4.77382 12.2986 4.39278 10.9424 4.39278C9.58606 4.39278 8.31219 4.77382 7.35305 5.46486C6.39451 6.15547 5.86597 7.07471 5.86597 8.0525C5.86597 9.03029 6.39451 9.94909 7.35365 10.6406L14.3208 15.6639L7.77529 20.3832C6.81674 21.0738 6.2882 21.993 6.2882 22.9708C6.2882 23.9486 6.81674 24.8674 7.77529 25.5585C8.73383 26.2495 10.0083 26.6305 11.3652 26.6305C12.7215 26.6305 13.996 26.2495 14.9545 25.5585L21.5001 20.8391L28.0456 25.558C29.0041 26.2491 30.278 26.6301 31.6349 26.6301C32.9918 26.6301 34.2663 26.2491 35.2242 25.558C36.1828 24.8674 36.7113 23.9482 36.7113 22.9704C36.7113 21.9926 36.1828 21.0738 35.2242 20.3827L28.6793 15.6639L35.6465 10.6401C36.605 9.94953 37.1335 9.03072 37.1335 8.0525C37.1335 7.07471 36.605 6.1559 35.6465 5.46486C34.6891 4.77382 33.414 4.39278 32.0577 4.39278ZM21.5001 12.5669C21.8052 12.5669 22.111 12.4829 22.3445 12.3146L30.1574 6.68247C30.6662 6.31607 31.3399 6.115 32.0577 6.115C32.7762 6.115 33.4505 6.3165 33.9581 6.68247C34.4669 7.04887 34.7452 7.53497 34.7452 8.0525C34.7452 8.57003 34.4663 9.05655 33.9581 9.42209L26.1464 15.0551C25.68 15.3913 25.68 15.9364 26.1464 16.2727L33.5359 21.6008C34.0447 21.9672 34.323 22.4529 34.323 22.9708C34.323 23.4888 34.0441 23.9744 33.5359 24.3408C33.0282 24.7072 32.3534 24.9083 31.6355 24.9083C30.9176 24.9083 30.2428 24.7068 29.7363 24.3408L22.3445 19.0127C21.8781 18.6765 21.1226 18.6765 20.6556 19.0127L13.2644 24.3404C12.7567 24.7068 12.0825 24.9079 11.3646 24.9079C10.6467 24.9079 9.97187 24.7064 9.46423 24.3404C8.95599 23.974 8.67649 23.4883 8.67649 22.9704C8.67649 22.4524 8.95659 21.9668 9.46363 21.6004L16.8537 16.2722C17.3201 15.936 17.3201 15.3909 16.8537 15.0546L9.042 9.42209C8.53436 9.05612 8.25486 8.57003 8.25486 8.05207C8.25486 7.53497 8.53495 7.04844 9.042 6.68204C9.55023 6.31564 10.2245 6.11457 10.9424 6.11457C11.6602 6.11457 12.3351 6.31607 12.8427 6.68204L20.6562 12.3141C20.8891 12.4829 21.1949 12.5669 21.5001 12.5669Z" fill="black"/>
</svg>
