<?xml version="1.0" standalone="no"?>
<!DOCTYPE svg PUBLIC "-//W3C//DTD SVG 20010904//EN"
 "http://www.w3.org/TR/2001/REC-SVG-20010904/DTD/svg10.dtd">
<svg version="1.0" xmlns="http://www.w3.org/2000/svg"
 width="387.000000pt" height="363.000000pt" viewBox="0 0 387.000000 363.000000"
 preserveAspectRatio="xMidYMid meet">

<g transform="translate(0.000000,363.000000) scale(0.100000,-0.100000)"
fill="#000000" stroke="none">
<path d="M1695 3375 c-164 -28 -356 -105 -510 -207 -102 -67 -285 -249 -353
-353 -102 -154 -176 -338 -207 -512 -19 -111 -19 -332 -1 -440 98 -554 525
-981 1079 -1079 108 -19 329 -18 441 2 267 46 499 168 697 364 259 256 389
566 389 925 0 280 -69 506 -224 739 -194 291 -515 500 -861 560 -110 19 -337
19 -450 1z m516 -118 c444 -116 784 -459 889 -897 28 -117 38 -331 20 -452
-75 -517 -477 -931 -993 -1023 -141 -25 -364 -17 -500 19 -439 114 -769 445
-884 885 -31 119 -42 336 -24 461 67 453 386 835 820 980 145 49 226 60 411
56 136 -3 182 -8 261 -29z"/>
<path d="M2010 2633 c-42 -30 -24 -55 205 -283 l220 -220 -582 0 -583 0 -16
-25 c-15 -23 -15 -27 0 -50 l16 -25 583 0 582 0 -223 -223 c-142 -142 -222
-229 -222 -242 0 -32 15 -47 45 -47 22 0 76 48 296 268 207 206 269 275 269
294 0 18 -62 87 -266 291 -147 147 -275 270 -285 272 -10 3 -27 -2 -39 -10z"/>
</g>
</svg>
