<svg width="53" height="50" viewBox="0 0 53 50" fill="none" xmlns="http://www.w3.org/2000/svg">
<path d="M9.82857 28.9754L25.1823 42.5823C25.7112 43.0509 25.9755 43.2852 26.2873 43.3429C26.4278 43.369 26.5722 43.369 26.7127 43.3429C27.0245 43.2852 27.2888 43.0509 27.8177 42.5823L43.1714 28.9754C47.4913 25.1471 48.0158 18.8471 44.3826 14.4293L43.6996 13.5987C39.3532 8.31374 30.6287 9.20005 27.5748 15.2368C27.1433 16.0895 25.8567 16.0895 25.4252 15.2368C22.3713 9.20005 13.6469 8.31374 9.30049 13.5987L8.61734 14.4293C4.9841 18.8471 5.50869 25.1471 9.82857 28.9754Z" stroke="#FF395A" stroke-width="3.67"/>
</svg>
